<?xml version="1.0" standalone="no"?>
<!DOCTYPE svg PUBLIC "-//W3C//DTD SVG 20010904//EN"
 "http://www.w3.org/TR/2001/REC-SVG-20010904/DTD/svg10.dtd">
<svg version="1.0" xmlns="http://www.w3.org/2000/svg"
 width="512.000000pt" height="512.000000pt" viewBox="0 0 512.000000 512.000000"
 preserveAspectRatio="xMidYMid meet">
<metadata>
Created by potrace 1.14, written by Peter Selinger 2001-2017
</metadata>
<g transform="translate(0.000000,512.000000) scale(0.100000,-0.100000)"
fill="#000000" stroke="none">
<path d="M1290 3628 c-696 -666 -1270 -1220 -1277 -1232 -24 -40 -16 -85 21
-122 39 -39 84 -45 127 -16 14 9 558 527 1209 1150 652 622 1187 1132 1190
1132 3 0 544 -514 1201 -1143 657 -629 1203 -1146 1213 -1150 63 -25 133 19
142 88 5 32 1 47 -18 72 -21 29 -2523 2426 -2537 2430 -3 1 -575 -543 -1271
-1209z"/>
<path d="M3365 4468 c-37 -20 -55 -52 -55 -96 0 -35 6 -49 29 -73 l29 -29 341
0 341 0 0 -325 c0 -359 3 -381 59 -409 38 -20 64 -20 102 0 58 29 59 41 59
514 l0 430 -442 0 c-303 -1 -449 -4 -463 -12z"/>
<path d="M703 2336 c-67 -30 -63 44 -63 -1206 l0 -1130 745 0 745 0 2 692 3
693 425 0 425 0 3 -693 2 -692 745 0 745 0 0 1086 0 1086 -34 34 c-24 24 -43
34 -65 34 -41 0 -83 -22 -99 -52 -9 -18 -13 -251 -15 -998 l-2 -975 -532 -3
-533 -2 0 695 0 695 -640 0 -640 0 0 -695 0 -695 -532 2 -533 3 -5 1037 -5
1038 -25 25 c-32 31 -76 39 -117 21z"/>
</g>
</svg>
